<?xml version="1.0" standalone="no"?>
<!DOCTYPE svg PUBLIC "-//W3C//DTD SVG 20010904//EN"
 "http://www.w3.org/TR/2001/REC-SVG-20010904/DTD/svg10.dtd">
<svg version="1.0" xmlns="http://www.w3.org/2000/svg"
 width="400.000000pt" height="400.000000pt" viewBox="0 0 400.000000 400.000000"
 preserveAspectRatio="xMidYMid meet">
<metadata>
Created by potrace 1.11, written by Peter Selinger 2001-2013
</metadata>
<g transform="translate(0.000000,400.000000) scale(0.100000,-0.100000)"
fill="#000000" stroke="none">
<path d="M1470 3955 c0 -3 15 -28 34 -55 52 -76 80 -155 79 -226 -1 -85 -17
-112 -87 -148 -33 -17 -93 -63 -135 -103 l-77 -71 -122 11 c-140 12 -132 3
-106 118 11 48 27 84 52 117 19 26 27 40 16 32 -46 -36 -82 -101 -104 -190
l-16 -65 -86 -7 c-126 -9 -195 -26 -268 -65 -36 -19 -57 -31 -46 -28 93 28
295 43 355 26 24 -6 25 -10 28 -122 l3 -116 -88 -45 c-48 -25 -111 -51 -140
-58 -28 -8 -52 -19 -52 -26 0 -13 50 -50 63 -46 4 1 7 -3 7 -9 0 -5 4 -8 9 -4
5 3 17 -2 25 -11 9 -8 16 -13 16 -11 0 2 26 -2 58 -9 31 -8 84 -14 117 -15 33
0 69 -5 80 -10 13 -6 -17 -8 -90 -5 -125 4 -190 23 -277 83 -48 33 -56 36
-124 34 -85 -2 -129 13 -166 58 -15 17 -30 31 -33 31 -7 0 -3 -44 11 -107 7
-37 0 -41 -28 -17 -16 15 -18 15 -24 1 -11 -30 50 -121 144 -215 51 -52 92
-95 90 -96 -78 -46 -129 -102 -211 -227 -73 -112 -70 -114 66 -43 67 35 127
64 132 64 6 0 9 -61 6 -171 -3 -180 5 -251 41 -347 23 -62 33 -60 30 6 -2 41
0 44 11 28 37 -58 76 -102 96 -112 12 -6 23 -15 23 -20 1 -14 56 -92 68 -96 5
-1 -2 -25 -16 -53 -30 -59 -29 -127 5 -193 77 -152 315 -250 511 -212 41 8 49
6 89 -21 25 -16 52 -29 60 -29 44 -1 156 -95 166 -138 10 -45 -22 -164 -54
-202 l-26 -32 -94 46 c-95 46 -145 59 -123 33 25 -30 588 -291 727 -338 86
-28 228 -34 233 -9 2 12 -11 15 -70 15 -90 1 -184 31 -383 123 -77 35 -164 75
-193 88 l-52 23 29 43 c42 63 54 117 47 220 -5 71 -4 88 6 82 11 -6 11 -5 0 8
-7 9 -54 30 -104 48 -51 17 -119 45 -151 62 -57 28 -62 29 -122 19 -89 -16
-120 -14 -208 14 -101 31 -154 63 -210 124 -48 54 -72 121 -61 169 10 39 42
82 63 82 9 0 30 13 46 30 45 47 83 42 159 -21 33 -29 70 -68 81 -87 11 -19 25
-33 30 -31 6 2 9 47 7 114 l-3 110 38 -37 c36 -34 101 -74 108 -66 2 2 -9 30
-25 63 -31 64 -47 139 -53 252 -3 56 -1 70 9 66 14 -5 91 107 155 224 50 92
61 82 35 -29 -7 -32 -10 -58 -5 -58 15 0 118 222 135 290 9 36 21 71 27 78 7
9 7 16 0 23 -7 7 -4 43 8 112 10 56 19 105 19 110 0 4 4 7 9 7 11 0 61 -204
61 -251 0 -65 30 -225 61 -322 17 -54 69 -173 114 -264 46 -92 81 -172 79
-178 -3 -6 -25 -23 -49 -37 -80 -49 -50 -66 38 -22 62 32 109 71 160 136 l38
48 27 -20 c33 -23 189 -75 254 -85 45 -7 47 -6 54 20 6 25 9 26 48 18 22 -4
60 -8 84 -8 43 1 44 0 37 -30 -16 -74 -17 -95 -7 -95 6 0 14 5 17 10 3 5 16
10 28 10 21 0 22 -4 24 -122 1 -66 -2 -129 -8 -139 -8 -16 -14 -13 -52 28 -85
93 -95 103 -102 103 -4 0 25 -34 64 -75 39 -41 71 -81 71 -89 0 -24 -89 -114
-158 -159 -76 -51 -232 -112 -337 -133 -38 -8 -110 -24 -159 -36 -108 -27
-111 -33 -120 -189 l-6 -107 83 -81 c96 -93 195 -170 219 -171 38 0 20 28 -51
81 -42 31 -101 83 -133 116 -46 49 -58 68 -63 106 -9 59 -2 174 10 186 6 5 56
14 111 19 63 7 116 18 140 30 22 10 82 33 134 51 178 59 326 167 382 279 30
61 31 65 25 157 -4 55 -3 97 3 100 5 3 22 -15 38 -41 34 -53 47 -48 26 11 -18
52 -17 76 2 125 18 46 34 52 34 14 0 -40 21 -25 55 38 26 51 34 58 74 68 74
18 163 60 207 96 48 39 70 75 31 50 -41 -27 -91 -29 -141 -7 l-46 20 0 69 c0
57 -25 170 -35 160 -2 -2 3 -30 11 -63 16 -70 18 -135 4 -135 -21 0 -31 45
-30 133 1 62 -3 106 -14 136 -20 55 -21 51 13 51 32 0 122 -67 174 -130 15
-17 27 -26 27 -19 0 6 -33 45 -74 84 l-74 73 47 12 c56 14 117 48 155 88 43
46 23 59 -27 18 -71 -57 -105 -70 -184 -71 -117 0 -115 16 8 74 131 62 302
122 354 124 32 2 41 6 43 23 4 26 -91 116 -155 147 -24 12 -43 24 -43 27 0 3
20 16 45 28 25 12 45 26 45 31 0 20 -99 36 -222 36 -71 0 -128 3 -128 6 0 4
13 21 29 38 35 37 75 142 96 253 12 63 14 112 9 203 -8 143 -19 174 -27 77 -6
-79 -23 -124 -38 -101 -5 8 -9 26 -9 41 0 63 -26 78 -36 21 -9 -51 -19 -69
-78 -137 -33 -38 -68 -67 -101 -82 -57 -27 -63 -28 -100 -14 l-27 10 39 43
c96 105 165 247 162 338 l-1 34 -9 -40 c-9 -38 -39 -115 -45 -115 -2 0 -20 11
-40 25 -50 34 -117 53 -251 72 -137 20 -142 39 -7 29 51 -3 101 -9 111 -11 10
-3 4 1 -14 10 -18 8 -65 18 -105 22 l-73 6 48 20 c75 31 59 41 -55 34 -108 -6
-177 -23 -361 -91 -96 -35 -104 -37 -277 -42 l-179 -6 -6 39 c-15 100 -73 234
-110 255 -7 4 -32 24 -55 43 -39 32 -60 43 -60 30z m435 -392 c20 -7 -60 -47
-156 -78 -30 -10 -59 -22 -66 -27 -21 -17 -20 15 2 56 17 32 29 42 56 47 48 9
144 10 164 2z m958 -63 c15 0 27 -4 27 -10 0 -22 -76 -92 -146 -136 -81 -51
-103 -53 -179 -19 -34 15 -37 15 -26 1 7 -9 21 -16 30 -16 10 0 26 -6 37 -14
17 -13 17 -15 2 -21 -16 -7 -78 19 -78 33 0 4 -20 30 -45 57 -25 27 -44 53
-42 59 5 14 132 56 202 66 33 5 89 7 125 4 36 -2 77 -4 93 -4z m-1349 -32
c-66 -107 -90 -128 -132 -120 l-34 7 53 45 c82 70 133 100 113 68z m-394 -198
c0 -22 -41 -90 -50 -85 -6 4 -10 26 -10 51 0 42 1 44 30 44 17 0 30 -5 30 -10z
m900 -75 c13 -14 19 -25 13 -25 -6 0 -18 11 -27 25 -9 14 -15 25 -13 25 2 0
14 -11 27 -25z m35 -61 c9 -15 12 -23 6 -20 -11 7 -35 46 -28 46 3 0 12 -12
22 -26z m72 -356 c-2 -24 -4 -5 -4 42 0 47 2 66 4 43 2 -24 2 -62 0 -85z
m-891 73 c-6 -9 -46 -22 -46 -15 0 3 10 9 23 14 29 11 29 11 23 1z m897 -135
c3 -8 0 -19 -7 -25 -11 -9 -15 -6 -18 14 -6 27 16 36 25 11z m-317 -244 c9
-20 27 -84 39 -142 13 -58 28 -122 33 -142 15 -60 -3 -44 -31 25 -20 50 -77
273 -77 301 0 17 22 -8 36 -42z m737 -115 c24 -84 53 -159 87 -220 45 -85 50
-101 56 -180 7 -87 1 -104 -26 -72 -6 8 -51 27 -98 42 -48 15 -92 32 -99 37
-19 18 -34 88 -21 103 7 9 7 13 0 13 -23 0 -22 46 3 130 15 48 34 155 41 218
4 40 10 70 14 65 4 -4 24 -65 43 -136z m-455 -384 c-7 -69 -28 -144 -39 -137
-10 6 12 159 28 187 11 20 15 2 11 -50z"/>
<path d="M2617 2009 c7 -7 15 -10 18 -7 3 3 -2 9 -12 12 -14 6 -15 5 -6 -5z"/>
<path d="M1525 2070 c-3 -6 1 -7 9 -4 18 7 21 14 7 14 -6 0 -13 -4 -16 -10z"/>
<path d="M1568 1974 c-93 -22 -170 -53 -182 -73 -14 -21 21 -30 85 -21 36 5
79 6 95 1 18 -5 52 -3 89 5 33 7 81 13 107 13 26 1 50 6 53 12 4 5 18 14 31
19 32 12 30 28 -3 40 -16 6 -36 15 -45 20 -29 16 -126 10 -230 -16z"/>
<path d="M948 1572 c-21 -19 -29 -34 -25 -45 8 -22 24 -21 32 1 9 32 50 44 89
28 42 -18 52 -33 26 -41 -11 -3 -25 -15 -31 -27 -29 -53 51 -118 146 -118 62
0 49 18 -22 31 -56 11 -98 38 -98 65 0 15 7 19 39 19 50 0 56 18 20 57 -59 62
-126 74 -176 30z"/>
<path d="M1400 1485 c0 -5 -16 -20 -35 -33 -19 -12 -35 -28 -35 -34 0 -7 5 -6
13 3 18 23 66 51 76 44 7 -4 21 15 21 29 0 1 -9 2 -20 2 -11 0 -20 -5 -20 -11z"/>
<path d="M2118 1453 c-22 -6 -24 -33 -2 -33 23 0 55 20 49 31 -6 9 -18 10 -47
2z"/>
<path d="M3285 1420 c-3 -6 1 -7 9 -4 18 7 21 14 7 14 -6 0 -13 -4 -16 -10z"/>
<path d="M3150 1402 c0 -5 9 -12 21 -15 13 -3 19 -1 16 6 -5 15 -37 22 -37 9z"/>
<path d="M3154 1285 c-16 -12 -17 -14 -3 -15 9 0 19 7 23 15 7 19 5 19 -20 0z"/>
<path d="M2915 1098 c-10 -29 -12 -74 -3 -90 14 -28 64 -23 84 7 20 31 21 74
3 86 -21 13 -79 11 -84 -3z m75 -29 c0 -55 -54 -83 -66 -34 -9 38 2 55 36 55
24 0 30 -4 30 -21z"/>
<path d="M1290 853 c-32 -86 -72 -143 -188 -267 -170 -181 -221 -260 -306
-472 -41 -103 -43 -117 -19 -112 10 2 24 27 38 68 65 192 144 313 345 525 80
85 126 156 156 242 14 39 16 55 7 64 -8 8 -17 -4 -33 -48z"/>
<path d="M2295 640 c3 -5 27 -22 53 -36 214 -121 317 -224 337 -340 4 -21 15
-52 25 -69 9 -16 27 -67 40 -112 18 -65 27 -83 41 -83 10 0 17 6 14 13 -2 6
-17 55 -34 107 -16 52 -37 124 -46 160 -29 113 -80 178 -215 270 -104 70 -238
127 -215 90z"/>
</g>
</svg>
